<?xml version="1.0" encoding="UTF-8" standalone="no" ?>
<!DOCTYPE svg PUBLIC "-//W3C//DTD SVG 1.1//EN" "http://www.w3.org/Graphics/SVG/1.1/DTD/svg11.dtd">
<svg xmlns="http://www.w3.org/2000/svg" xmlns:xlink="http://www.w3.org/1999/xlink" version="1.1" width="1080" height="1080" viewBox="0 0 1080 1080" xml:space="preserve">
<desc>Created with Fabric.js 5.2.4</desc>
<defs>
</defs>
<g transform="matrix(1 0 0 1 540 540)" id="8038da12-68ca-4754-9bd3-90753eb84754"  >
</g>
<g transform="matrix(1 0 0 1 540 540)" id="7de932a6-a37a-46d0-a0da-df85ca71fa75"  >
<rect style="stroke: none; stroke-width: 1; stroke-dasharray: none; stroke-linecap: butt; stroke-dashoffset: 0; stroke-linejoin: miter; stroke-miterlimit: 4; fill: rgb(255,255,255); fill-rule: nonzero; opacity: 1; visibility: hidden;" vector-effect="non-scaling-stroke"  x="-540" y="-540" rx="0" ry="0" width="1080" height="1080" />
</g>
<g transform="matrix(2.61 0 0 2.61 510.66 540)"  >
<path style="stroke: rgb(0,0,0); stroke-width: 0; stroke-dasharray: none; stroke-linecap: butt; stroke-dashoffset: 0; stroke-linejoin: miter; stroke-miterlimit: 4; fill: rgb(248,250,252); fill-rule: nonzero; opacity: 1;" vector-effect="non-scaling-stroke"  transform=" translate(-199.95, -200.08)" d="M 241.797 1.095 C 204.224 13.009 210.878 68.609 250.065 70.183 C 281.297 71.438 298.867 37.647 279.926 12.754 C 272.186 2.582 254.328 -2.878 241.797 1.095 M 214.379 80.208 C 208.333 81.992 203.207 86.288 200.207 92.085 C 197.095 98.097 196.804 101.137 199.414 100.371 C 202.616 99.432 198.901 101.619 182.407 110.383 C 173.617 115.054 165.683 119.818 164.292 121.261 C 159.982 125.731 134.912 186.498 134.869 192.578 C 134.745 210.27 158.015 215.336 165.908 199.335 C 166.893 197.337 172.542 184.071 178.462 169.854 L 189.224 144.006 L 194.026 141.572 C 196.667 140.234 203.223 136.795 208.594 133.929 C 213.965 131.064 218.008 129.05 217.578 129.454 C 217.148 129.858 212.366 133.92 206.951 138.479 C 193.426 149.867 194.331 146.89 191.56 189.063 L 189.377 222.266 L 191.122 256.881 L 192.867 291.497 L 174.851 330.319 C 152.147 379.243 153.905 375.011 153.914 380.729 C 153.942 398.485 175.762 407.15 187.505 394.067 C 193.28 387.633 231.548 303.067 231.897 295.969 C 232.167 290.467 230.317 246.837 229.209 232.573 L 228.736 226.475 L 232.86 226.714 L 236.984 226.953 L 247.473 258.203 L 257.961 289.453 L 262.139 336.719 C 264.437 362.715 266.686 385.246 267.137 386.788 C 271.852 402.924 295.379 404.838 303.173 389.72 C 305.756 384.709 305.659 381.783 301.233 331.25 L 296.888 281.641 L 288.277 255.859 L 279.666 230.078 L 281.616 200.391 C 282.689 184.063 283.776 168.511 284.032 165.833 L 284.497 160.962 L 286.422 163.25 C 287.481 164.509 289.475 166.228 290.853 167.071 C 294.046 169.025 348.188 182.818 352.572 182.795 C 366.371 182.723 373.747 166.12 364.606 155.708 C 361.108 151.724 358.831 150.925 332.473 144.433 L 309.086 138.672 L 298.293 126.331 L 287.5 113.991 L 287.5 107.525 C 287.5 96.643 283.3 88.971 275.053 84.793 C 270.188 82.327 269.577 82.245 242.969 80.457 C 216.492 78.679 219.468 78.705 214.379 80.208 M 124.196 239.016 C 118.134 252.147 112.891 263.179 112.547 263.532 C 112.202 263.885 107.947 262.359 103.092 260.141 C 90.604 254.436 85.713 254.251 80.669 259.295 C 77.293 262.671 31.25 363.001 31.25 366.981 C 31.25 372.195 34.13 376.622 39.262 379.297 C 42.53 381 43.622 381.961 43.256 382.813 C 41.394 387.156 41.11 389.978 42.217 393.155 C 45.32 402.062 58.868 402.463 62.291 393.749 C 63.455 390.786 63.553 390.725 65.535 391.749 C 74.72 396.495 82.553 394.15 87.028 385.315 C 94.071 371.413 132.272 287.33 132.599 285.01 C 133.208 280.688 132.209 276.822 129.756 274.007 L 127.557 271.484 L 139.121 246.484 C 152.614 217.314 151.558 220.622 147.55 220.085 C 145.773 219.846 142.271 218.637 139.768 217.396 L 135.218 215.141 L 124.196 239.016" stroke-linecap="round" />
</g>
<g transform="matrix(NaN NaN NaN NaN 0 0)"  >
<g style=""   >
</g>
</g>
<g transform="matrix(NaN NaN NaN NaN 0 0)"  >
<g style=""   >
</g>
</g>
</svg>